# This file uses centimeters as units for non-parametric coordinates.

mtllib nissan_skyline_r34_brake.mtl
g default
v 2.027491 1.053596 -3.233872
v 2.027491 0.982711 -3.089906
v 2.027491 0.840987 -3.084275
v 2.027491 0.862549 -3.252917
v 2.027491 1.131025 -3.408985
v 2.027491 1.290003 -3.342252
v 2.027491 1.209033 -3.219627
v 1.847898 0.982711 -3.089906
v 1.847898 0.840987 -3.084275
v 1.847898 0.862549 -3.252917
v 1.847898 1.131025 -3.408985
v 1.847898 1.290003 -3.342252
v 1.847898 1.209033 -3.219627
v 1.847898 1.053596 -3.233872
vn 1.000000 -0.000000 -0.000000
vn 1.000000 -0.000000 -0.000000
vn 1.000000 -0.000003 -0.000005
vn 1.000000 0.000002 0.000003
vn 1.000000 -0.000000 -0.000000
vn 1.000000 -0.000000 -0.000000
vn 1.000000 0.000002 0.000004
vn 1.000000 -0.000000 -0.000000
vn 1.000000 0.000002 0.000003
vn 1.000000 -0.000000 -0.000000
vn 1.000000 -0.000000 -0.000000
vn 1.000000 0.000002 0.000004
vn 1.000000 -0.000003 -0.000005
vn 1.000000 -0.000000 -0.000000
vn 1.000000 -0.000000 -0.000000
vn 1.000000 -0.000003 -0.000005
vn 1.000000 -0.000000 -0.000000
vn 1.000000 -0.000003 -0.000005
vn 0.000000 0.276437 0.961032
vn 0.000000 0.276437 0.961032
vn 0.000000 0.039700 0.999212
vn 0.000000 0.039700 0.999212
vn 0.000000 -0.991926 -0.126821
vn 0.000000 -0.991926 -0.126821
vn 0.000000 -0.991926 -0.126821
vn 0.000000 -0.991926 -0.126821
vn 0.000000 -0.502565 -0.864539
vn 0.000000 -0.502565 -0.864539
vn 0.000000 -0.502565 -0.864539
vn 0.000000 -0.502565 -0.864539
vn 0.000000 0.387043 -0.922062
vn 0.000000 0.387043 -0.922062
vn 0.000000 0.387043 -0.922062
vn 0.000000 0.387043 -0.922062
vn 0.000000 0.834492 0.551020
vn 0.000000 0.834492 0.551020
vn 0.000000 0.684440 0.729070
vn 0.000000 0.684439 0.729070
vn 0.000000 0.684439 0.729070
vn 0.000000 0.684440 0.729070
vn 0.000000 0.276437 0.961032
vn 0.000000 0.276437 0.961032
vn -1.000000 0.000001 -0.000001
vn -1.000000 0.000002 0.000001
vn -1.000000 -0.000000 -0.000000
vn -1.000000 0.000000 -0.000001
vn -1.000000 0.000001 -0.000001
vn -1.000000 -0.000000 -0.000000
vn -1.000000 -0.000001 -0.000001
vn -1.000000 0.000000 -0.000001
vn -1.000000 -0.000000 -0.000000
vn -1.000000 -0.000001 0.000001
vn -1.000000 -0.000001 -0.000001
vn -1.000000 -0.000000 -0.000000
vn -1.000000 -0.000000 0.000002
vn -1.000000 -0.000001 0.000001
vn -1.000000 -0.000000 -0.000000
vn -1.000000 0.000002 0.000001
vn -1.000000 -0.000000 0.000002
vn -1.000000 -0.000000 -0.000000
s off
g polySurface143 brake1
usemtl lambert4SG
f 3//1 1//2 2//3
f 4//4 1//5 3//6
f 5//7 1//8 4//9
f 6//10 1//11 5//12
f 7//13 1//14 6//15
f 2//16 1//17 7//18
f 2//19 8//20 9//21 3//22
f 3//23 9//24 10//25 4//26
f 4//27 10//28 11//29 5//30
f 5//31 11//32 12//33 6//34
f 6//35 12//36 13//37 7//38
f 7//39 13//40 8//41 2//42
f 9//43 8//44 14//45
f 10//46 9//47 14//48
f 11//49 10//50 14//51
f 12//52 11//53 14//54
f 13//55 12//56 14//57
f 8//58 13//59 14//60
g default
v -2.027491 1.053596 -3.233872
v -2.027491 0.982711 -3.089906
v -2.027491 0.840987 -3.084275
v -2.027491 0.862549 -3.252917
v -2.027491 1.131025 -3.408985
v -2.027491 1.290003 -3.342252
v -2.027491 1.209033 -3.219627
v -1.847898 0.982711 -3.089906
v -1.847898 0.840987 -3.084275
v -1.847898 0.862549 -3.252917
v -1.847898 1.131025 -3.408985
v -1.847898 1.290003 -3.342252
v -1.847898 1.209033 -3.219627
v -1.847898 1.053596 -3.233872
vn -1.000000 -0.000000 -0.000000
vn -1.000000 -0.000000 -0.000000
vn -1.000000 -0.000003 -0.000005
vn -1.000000 -0.000000 -0.000000
vn -1.000000 0.000002 0.000003
vn -1.000000 -0.000000 -0.000000
vn -1.000000 -0.000000 -0.000000
vn -1.000000 0.000002 0.000004
vn -1.000000 0.000002 0.000003
vn -1.000000 -0.000000 -0.000000
vn -1.000000 -0.000000 -0.000000
vn -1.000000 0.000002 0.000004
vn -1.000000 -0.000000 -0.000000
vn -1.000000 -0.000003 -0.000005
vn -1.000000 -0.000000 -0.000000
vn -1.000000 -0.000000 -0.000000
vn -1.000000 -0.000003 -0.000005
vn -1.000000 -0.000003 -0.000005
vn 0.000000 0.276437 0.961032
vn 0.000000 0.039700 0.999212
vn 0.000000 0.039700 0.999212
vn 0.000000 0.276437 0.961032
vn 0.000000 -0.991926 -0.126821
vn 0.000000 -0.991926 -0.126821
vn 0.000000 -0.991926 -0.126821
vn 0.000000 -0.991926 -0.126821
vn 0.000000 -0.502565 -0.864539
vn 0.000000 -0.502565 -0.864539
vn 0.000000 -0.502565 -0.864539
vn 0.000000 -0.502565 -0.864539
vn 0.000000 0.387043 -0.922062
vn 0.000000 0.387043 -0.922062
vn 0.000000 0.387043 -0.922062
vn 0.000000 0.387043 -0.922062
vn 0.000000 0.834492 0.551020
vn 0.000000 0.684439 0.729070
vn 0.000000 0.684440 0.729070
vn 0.000000 0.834492 0.551020
vn 0.000000 0.684439 0.729070
vn 0.000000 0.276437 0.961032
vn 0.000000 0.276437 0.961032
vn 0.000000 0.684440 0.729070
vn 1.000000 0.000002 0.000001
vn 1.000000 0.000001 -0.000001
vn 1.000000 -0.000000 -0.000000
vn 1.000000 0.000001 -0.000001
vn 1.000000 0.000000 -0.000001
vn 1.000000 -0.000000 -0.000000
vn 1.000000 0.000000 -0.000001
vn 1.000000 -0.000001 -0.000001
vn 1.000000 -0.000000 -0.000000
vn 1.000000 -0.000001 -0.000001
vn 1.000000 -0.000001 0.000001
vn 1.000000 -0.000000 -0.000000
vn 1.000000 -0.000001 0.000001
vn 1.000000 -0.000000 0.000002
vn 1.000000 -0.000000 -0.000000
vn 1.000000 -0.000000 0.000002
vn 1.000000 0.000002 0.000001
vn 1.000000 -0.000000 -0.000000
s off
g brake1 polySurface145
usemtl lambert4SG
f 15//61 17//62 16//63
f 15//64 18//65 17//66
f 15//67 19//68 18//69
f 15//70 20//71 19//72
f 15//73 21//74 20//75
f 15//76 16//77 21//78
f 16//79 17//80 23//81 22//82
f 17//83 18//84 24//85 23//86
f 18//87 19//88 25//89 24//90
f 19//91 20//92 26//93 25//94
f 20//95 21//96 27//97 26//98
f 21//99 16//100 22//101 27//102
f 22//103 23//104 28//105
f 23//106 24//107 28//108
f 24//109 25//110 28//111
f 25//112 26//113 28//114
f 26//115 27//116 28//117
f 27//118 22//119 28//120
g default
v -2.014317 1.053596 3.827029
v -2.014318 0.982711 3.970995
v -2.014317 0.840987 3.976626
v -2.014318 0.862549 3.807984
v -2.014318 1.131025 3.651917
v -2.014317 1.290003 3.718649
v -2.014318 1.209033 3.841274
v -1.834725 0.982711 3.970995
v -1.834724 0.840987 3.976626
v -1.834725 0.862549 3.807984
v -1.834725 1.131025 3.651917
v -1.834724 1.290003 3.718649
v -1.834725 1.209033 3.841274
v -1.834725 1.053596 3.827029
vn -1.000000 -0.000000 -0.000000
vn -1.000000 -0.000000 -0.000000
vn -1.000000 -0.000003 -0.000005
vn -1.000000 -0.000000 -0.000000
vn -1.000000 0.000002 0.000003
vn -1.000000 -0.000000 -0.000000
vn -1.000000 -0.000000 -0.000000
vn -1.000000 0.000002 0.000004
vn -1.000000 0.000002 0.000003
vn -1.000000 -0.000000 -0.000000
vn -1.000000 -0.000000 -0.000000
vn -1.000000 0.000002 0.000004
vn -1.000000 -0.000000 -0.000000
vn -1.000000 -0.000003 -0.000005
vn -1.000000 -0.000000 -0.000000
vn -1.000000 -0.000000 -0.000000
vn -1.000000 -0.000003 -0.000005
vn -1.000000 -0.000003 -0.000005
vn 0.000000 0.276437 0.961032
vn 0.000000 0.039700 0.999212
vn 0.000000 0.039700 0.999212
vn 0.000000 0.276436 0.961032
vn 0.000000 -0.991926 -0.126821
vn 0.000000 -0.991926 -0.126821
vn 0.000000 -0.991926 -0.126821
vn 0.000000 -0.991926 -0.126821
vn 0.000000 -0.502564 -0.864540
vn 0.000000 -0.502564 -0.864540
vn 0.000000 -0.502564 -0.864540
vn 0.000000 -0.502564 -0.864540
vn 0.000000 0.387045 -0.922061
vn 0.000000 0.387045 -0.922061
vn 0.000000 0.387045 -0.922061
vn 0.000000 0.387045 -0.922061
vn 0.000000 0.834491 0.551021
vn 0.000000 0.684439 0.729070
vn 0.000000 0.684439 0.729070
vn 0.000000 0.834491 0.551021
vn 0.000000 0.684439 0.729070
vn 0.000000 0.276437 0.961032
vn 0.000000 0.276436 0.961032
vn 0.000000 0.684439 0.729070
vn 1.000000 0.000002 0.000001
vn 1.000000 0.000001 -0.000001
vn 1.000000 -0.000000 -0.000000
vn 1.000000 0.000001 -0.000001
vn 1.000000 0.000000 -0.000001
vn 1.000000 -0.000000 -0.000000
vn 1.000000 0.000000 -0.000001
vn 1.000000 -0.000001 -0.000001
vn 1.000000 -0.000000 -0.000000
vn 1.000000 -0.000001 -0.000001
vn 1.000000 -0.000001 0.000001
vn 1.000000 -0.000000 -0.000000
vn 1.000000 -0.000001 0.000001
vn 1.000000 -0.000000 0.000002
vn 1.000000 -0.000000 -0.000000
vn 1.000000 -0.000000 0.000002
vn 1.000000 0.000002 0.000001
vn 1.000000 -0.000000 -0.000000
s off
g brake1 polySurface147
usemtl lambert4SG
f 29//121 31//122 30//123
f 29//124 32//125 31//126
f 29//127 33//128 32//129
f 29//130 34//131 33//132
f 29//133 35//134 34//135
f 29//136 30//137 35//138
f 30//139 31//140 37//141 36//142
f 31//143 32//144 38//145 37//146
f 32//147 33//148 39//149 38//150
f 33//151 34//152 40//153 39//154
f 34//155 35//156 41//157 40//158
f 35//159 30//160 36//161 41//162
f 36//163 37//164 42//165
f 37//166 38//167 42//168
f 38//169 39//170 42//171
f 39//172 40//173 42//174
f 40//175 41//176 42//177
f 41//178 36//179 42//180
g default
v 2.014317 1.053596 3.827029
v 2.014318 0.982711 3.970995
v 2.014317 0.840987 3.976626
v 2.014318 0.862549 3.807984
v 2.014318 1.131025 3.651917
v 2.014317 1.290003 3.718649
v 2.014318 1.209033 3.841274
v 1.834725 0.982711 3.970995
v 1.834724 0.840987 3.976626
v 1.834725 0.862549 3.807984
v 1.834725 1.131025 3.651917
v 1.834724 1.290003 3.718649
v 1.834725 1.209033 3.841274
v 1.834725 1.053596 3.827029
vn 1.000000 -0.000000 -0.000000
vn 1.000000 -0.000000 -0.000000
vn 1.000000 -0.000003 -0.000005
vn 1.000000 0.000002 0.000003
vn 1.000000 -0.000000 -0.000000
vn 1.000000 -0.000000 -0.000000
vn 1.000000 0.000002 0.000004
vn 1.000000 -0.000000 -0.000000
vn 1.000000 0.000002 0.000003
vn 1.000000 -0.000000 -0.000000
vn 1.000000 -0.000000 -0.000000
vn 1.000000 0.000002 0.000004
vn 1.000000 -0.000003 -0.000005
vn 1.000000 -0.000000 -0.000000
vn 1.000000 -0.000000 -0.000000
vn 1.000000 -0.000003 -0.000005
vn 1.000000 -0.000000 -0.000000
vn 1.000000 -0.000003 -0.000005
vn 0.000000 0.276437 0.961032
vn 0.000000 0.276436 0.961032
vn 0.000000 0.039700 0.999212
vn 0.000000 0.039700 0.999212
vn 0.000000 -0.991926 -0.126821
vn 0.000000 -0.991926 -0.126821
vn 0.000000 -0.991926 -0.126821
vn 0.000000 -0.991926 -0.126821
vn 0.000000 -0.502564 -0.864540
vn 0.000000 -0.502564 -0.864540
vn 0.000000 -0.502564 -0.864540
vn 0.000000 -0.502564 -0.864540
vn 0.000000 0.387045 -0.922061
vn 0.000000 0.387045 -0.922061
vn 0.000000 0.387045 -0.922061
vn 0.000000 0.387045 -0.922061
vn 0.000000 0.834491 0.551021
vn 0.000000 0.834491 0.551021
vn 0.000000 0.684439 0.729070
vn 0.000000 0.684439 0.729070
vn 0.000000 0.684439 0.729070
vn 0.000000 0.684439 0.729070
vn 0.000000 0.276436 0.961032
vn 0.000000 0.276437 0.961032
vn -1.000000 0.000001 -0.000001
vn -1.000000 0.000002 0.000001
vn -1.000000 -0.000000 -0.000000
vn -1.000000 0.000000 -0.000001
vn -1.000000 0.000001 -0.000001
vn -1.000000 -0.000000 -0.000000
vn -1.000000 -0.000001 -0.000001
vn -1.000000 0.000000 -0.000001
vn -1.000000 -0.000000 -0.000000
vn -1.000000 -0.000001 0.000001
vn -1.000000 -0.000001 -0.000001
vn -1.000000 -0.000000 -0.000000
vn -1.000000 -0.000000 0.000002
vn -1.000000 -0.000001 0.000001
vn -1.000000 -0.000000 -0.000000
vn -1.000000 0.000002 0.000001
vn -1.000000 -0.000000 0.000002
vn -1.000000 -0.000000 -0.000000
s off
g brake1 polySurface151
usemtl lambert4SG
f 45//181 43//182 44//183
f 46//184 43//185 45//186
f 47//187 43//188 46//189
f 48//190 43//191 47//192
f 49//193 43//194 48//195
f 44//196 43//197 49//198
f 44//199 50//200 51//201 45//202
f 45//203 51//204 52//205 46//206
f 46//207 52//208 53//209 47//210
f 47//211 53//212 54//213 48//214
f 48//215 54//216 55//217 49//218
f 49//219 55//220 50//221 44//222
f 51//223 50//224 56//225
f 52//226 51//227 56//228
f 53//229 52//230 56//231
f 54//232 53//233 56//234
f 55//235 54//236 56//237
f 50//238 55//239 56//240
